<?xml version="1.0" encoding="utf-8"?>
<!-- Generator: Adobe Illustrator 26.0.1, SVG Export Plug-In . SVG Version: 6.00 Build 0)  -->
<svg version="1.1" id="Layer_1" xmlns="http://www.w3.org/2000/svg" xmlns:xlink="http://www.w3.org/1999/xlink" x="0px" y="0px"
	 viewBox="0 0 129 103" style="enable-background:new 0 0 129 103;" xml:space="preserve">
<style type="text/css">
	.st0{fill:#305E74;}
	.st1{opacity:0.21;fill:none;stroke:#DAC7B5;stroke-width:12;stroke-miterlimit:10;}
	.st2{fill:#65685D;stroke:#FFFFFF;stroke-miterlimit:10;}
	.st3{fill:#DAC7B5;}
</style>
<rect x="-854" y="1009" class="st0" width="1931" height="1094"/>
<polyline class="st1" points="-2019.2,326.7 -1624.6,869.1 -1230,329.1 "/>
<polyline class="st1" points="-2019.2,245.5 -1624.6,787.9 -1230,247.8 "/>
<polyline class="st1" points="-2019.2,164.2 -1624.6,706.6 -1230,166.5 "/>
<polyline class="st1" points="-2371,1602.6 -2765.6,1060.2 -3160.2,1600.3 "/>
<polyline class="st1" points="-2371,1683.9 -2765.6,1141.5 -3160.2,1681.5 "/>
<polyline class="st1" points="-2371,1765.1 -2765.6,1222.7 -3160.2,1762.8 "/>
<rect x="-2386.9" y="-14.1" style="fill:none;" width="175.9" height="64"/>
<text transform="matrix(1 0 0 1 -2386.9473 5.8246)"><tspan x="0" y="0" class="st3" style="font-family:'Agenda-Regular'; font-size:28px;">MADELINE </tspan><tspan x="0" y="33.6" class="st3" style="font-family:'Agenda-Regular'; font-size:28px;">ARMSTRONG</tspan></text>
<g id="idy7oA_00000079460591526701161720000016733231367080716470_">
	
		<image style="overflow:visible;" width="1024" height="323" id="idy7oA_00000163030755850157433290000004562159405953297327_" xlink:href="94CBAC298F72EF34.jpg"  transform="matrix(2.7954 0 0 3 -2411.4912 778.0125)">
	</image>
</g>
<rect x="-918" y="-39" class="st2" width="387" height="284"/>
<rect x="522.6" y="1223.5" style="fill:none;" width="434.5" height="352.4"/>
<text transform="matrix(1 0 0 1 522.5791 1272.4453)" style="fill:#ADC161; font-family:'MyriadPro-Regular'; font-size:69px;">hey there</text>
<g>
	<polygon class="st3" points="122.3,51.9 79.4,103 54.5,103 97.5,51.9 53.9,0 78.7,0 	"/>
</g>
<g>
	<polygon class="st3" points="78,51.9 35,103 10.2,103 53.2,51.9 9.6,0 34.4,0 	"/>
</g>
</svg>
